<svg xmlns="http://www.w3.org/2000/svg" viewBox="0 0 13.714 12"><title>Varlık 11</title><g id="84bee972-b278-456c-beb0-69833f88c31a" data-name="katman 2"><g id="f69851fe-6533-46b2-b45f-4149202f201a" data-name="katman 1"><path d="M3.432.012l9.09,1.032a1.3,1.3,0,0,1,.648.255,1.373,1.373,0,0,1,.429.537,1.269,1.269,0,0,1,.105.684l-.762,6.756a1.361,1.361,0,0,1-.156.492,1.337,1.337,0,0,1-.33.4,1.731,1.731,0,0,1-.63.27V10.7a1.167,1.167,0,0,1-.2.66,1.358,1.358,0,0,1-.51.462,1.425,1.425,0,0,1-.684.174H1.23a1.271,1.271,0,0,1-1.074-.66A1.25,1.25,0,0,1,0,10.7V3.9a1.43,1.43,0,0,1,.168-.678,1.323,1.323,0,0,1,.456-.5,1.173,1.173,0,0,1,.66-.2H1.8l.168-1.362a1.2,1.2,0,0,1,.15-.477,1.3,1.3,0,0,1,.33-.387A1.2,1.2,0,0,1,2.91.048,1.279,1.279,0,0,1,3.432.012Zm7.878,6.63L7.644,8.76a.847.847,0,0,1-.507.117.822.822,0,0,1-.483-.2L4.806,7.056a1.481,1.481,0,0,0-.591-.306,1.544,1.544,0,0,0-.663-.024,1.443,1.443,0,0,0-.612.264L.72,8.592V3.84A.786.786,0,0,1,.8,3.489a.708.708,0,0,1,.222-.267.534.534,0,0,1,.321-.1h9.222a.755.755,0,0,1,.513.219.739.739,0,0,1,.231.5Zm-.744,4.638a.824.824,0,0,0,.357-.081.748.748,0,0,0,.279-.222.505.505,0,0,0,.108-.315V7.506L8,9.36a1.53,1.53,0,0,1-.8.21,1.7,1.7,0,0,1-.531-.1A1.513,1.513,0,0,1,6.2,9.21L4.368,7.65a.779.779,0,0,0-.51-.21A.8.8,0,0,0,3.33,7.6L.72,9.456V10.71a.575.575,0,0,0,.192.411.6.6,0,0,0,.432.159ZM12.99,2.262V2.256a.633.633,0,0,0-.057-.339.683.683,0,0,0-.219-.264.65.65,0,0,0-.324-.123L3.306.48a.756.756,0,0,0-.5.138.728.728,0,0,0-.252.432l-.15,1.3h7.968a1.372,1.372,0,0,1,.687.192,1.448,1.448,0,0,1,.507.5,1.384,1.384,0,0,1,.2.687V9.6q0-.018.078-.054a.717.717,0,0,0,.138-.078.6.6,0,0,0,.159-.2.561.561,0,0,0,.057-.249ZM6,5.574a1.249,1.249,0,0,1,.174-.648,1.312,1.312,0,0,1,.468-.468,1.238,1.238,0,0,1,.642-.174,1.254,1.254,0,0,1,.645.174,1.3,1.3,0,0,1,.471.468,1.282,1.282,0,0,1,0,1.29,1.3,1.3,0,0,1-.471.468,1.254,1.254,0,0,1-.645.174,1.238,1.238,0,0,1-.642-.174,1.312,1.312,0,0,1-.468-.468A1.238,1.238,0,0,1,6,5.574Zm.642-.12a.736.736,0,0,0,.087.354.67.67,0,0,0,.234.255.589.589,0,0,0,.321.093.6.6,0,0,0,.324-.093.64.64,0,0,0,.234-.255.757.757,0,0,0,.084-.354A.74.74,0,0,0,7.842,5.1a.668.668,0,0,0-.234-.255.59.59,0,0,0-.324-.1.575.575,0,0,0-.321.1.7.7,0,0,0-.234.255A.719.719,0,0,0,6.642,5.454Z"/></g></g></svg>