<svg xmlns="http://www.w3.org/2000/svg" viewBox="0 0 12 12"><title>Varlık 14</title><g id="6e31c852-e7ee-4d5d-bd86-c0807048bff3" data-name="katman 2"><g id="730ee6f0-f8b4-429e-8331-140baae3bdba" data-name="katman 1"><path d="M9.708.294a3.811,3.811,0,0,1,2,2A3.709,3.709,0,0,1,12,3.75v4.5a3.709,3.709,0,0,1-.294,1.458,3.811,3.811,0,0,1-2,2A3.709,3.709,0,0,1,8.25,12H3.75a3.709,3.709,0,0,1-1.458-.294,3.811,3.811,0,0,1-2-2A3.709,3.709,0,0,1,0,8.25V3.75A3.709,3.709,0,0,1,.294,2.292a3.811,3.811,0,0,1,2-2A3.709,3.709,0,0,1,3.75,0h4.5A3.709,3.709,0,0,1,9.708.294Zm1.17,3.456a2.63,2.63,0,0,0-1.3-2.268,2.57,2.57,0,0,0-1.326-.36H3.75a2.649,2.649,0,0,0-1.326.36,2.594,2.594,0,0,0-.942.942,2.649,2.649,0,0,0-.36,1.326v4.5a2.63,2.63,0,0,0,1.3,2.268,2.6,2.6,0,0,0,1.326.354h4.5a2.608,2.608,0,0,0,2.268-1.3,2.57,2.57,0,0,0,.36-1.326ZM7.512,3.408a3.037,3.037,0,0,1,1.08,1.08,3.006,3.006,0,0,1,0,3.024,3.037,3.037,0,0,1-1.08,1.08,3.006,3.006,0,0,1-3.024,0,3.037,3.037,0,0,1-1.08-1.08,3.006,3.006,0,0,1,0-3.024,3.037,3.037,0,0,1,1.08-1.08,3.006,3.006,0,0,1,3.024,0ZM6.948,7.62a1.93,1.93,0,0,0,.672-.672A1.814,1.814,0,0,0,7.875,6a1.892,1.892,0,0,0-.255-.948,1.93,1.93,0,0,0-.672-.672A1.814,1.814,0,0,0,6,4.125a1.892,1.892,0,0,0-.948.255,1.93,1.93,0,0,0-.672.672A1.892,1.892,0,0,0,4.125,6a1.814,1.814,0,0,0,.255.948,1.93,1.93,0,0,0,.672.672A1.869,1.869,0,0,0,6,7.872,1.792,1.792,0,0,0,6.948,7.62ZM8.826,2.778a.4.4,0,1,0,0-.006Z"/></g></g></svg>