<svg xmlns="http://www.w3.org/2000/svg" viewBox="0 0 14.274 11.797"><title>Varlık 10</title><g id="88dca000-6bad-4ee4-88d7-44512604d34b" data-name="katman 2"><g id="158349bc-d6f2-41ad-bad9-8cbfa1d7c12b" data-name="katman 1"><path d="M13.4.219a1.7,1.7,0,0,1,.633.591,1.526,1.526,0,0,1,.246.84V7.92a1.681,1.681,0,0,1-.252.852,1.727,1.727,0,0,1-.627.609,1.691,1.691,0,0,1-.855.225H9.612l1.266,1.668a.284.284,0,0,1,.075.171.292.292,0,0,1-.039.18.371.371,0,0,1-.126.129.267.267,0,0,1-.162.042H3.876a.318.318,0,0,1-.174-.039.313.313,0,0,1-.129-.126.292.292,0,0,1-.036-.174.3.3,0,0,1,.069-.165L4.872,9.606H1.734a1.69,1.69,0,0,1-.858-.228,1.726,1.726,0,0,1-.627-.609A1.681,1.681,0,0,1,0,7.92V1.65A1.546,1.546,0,0,1,.246.81,1.7,1.7,0,0,1,.879.219,1.749,1.749,0,0,1,1.734,0h10.8A1.761,1.761,0,0,1,13.4.219Zm.261,1.467a.97.97,0,0,0-.138-.507A1.052,1.052,0,0,0,13.149.81a.97.97,0,0,0-.507-.138H1.686A.97.97,0,0,0,1.179.81a1.052,1.052,0,0,0-.369.369.97.97,0,0,0-.138.507V7.92a.986.986,0,0,0,.138.51,1.02,1.02,0,0,0,.369.369.987.987,0,0,0,.507.135H12.642a.987.987,0,0,0,.507-.135,1.02,1.02,0,0,0,.369-.369.986.986,0,0,0,.138-.51ZM8.766,9.612H5.712L4.548,11.124H9.93ZM9.5,4.53a.354.354,0,0,1,.015.267.341.341,0,0,1-.171.2L5.85,7.05a.337.337,0,0,1-.186.054L5.5,7.05a.339.339,0,0,1-.117-.138.308.308,0,0,1-.027-.174V2.64a.324.324,0,0,1,.027-.18A.319.319,0,0,1,5.5,2.325a.311.311,0,0,1,.174-.051.3.3,0,0,1,.174.054l3.5,2.046A.367.367,0,0,1,9.5,4.53Zm-1.02.156L6.09,3.276V6.1Z"/></g></g></svg>