<svg xmlns="http://www.w3.org/2000/svg" viewBox="0 0 12 12"><title>Varlık 9</title><g id="06ebda8a-5d48-43ab-8c88-941c59bccb2c" data-name="katman 2"><g id="4b5d7e5b-8862-4310-95b3-582a70e7256c" data-name="katman 1"><path d="M12,11.64a.352.352,0,0,1-.1.255.337.337,0,0,1-.252.105.352.352,0,0,1-.258-.108L8.472,8.976a5.07,5.07,0,0,1-3.354,1.26,4.972,4.972,0,0,1-1.986-.408A5.1,5.1,0,0,1,.408,7.1,4.969,4.969,0,0,1,0,5.118,5.114,5.114,0,0,1,8.736,1.5a5.091,5.091,0,0,1,1.5,3.618A5.034,5.034,0,0,1,9.9,6.936a5.174,5.174,0,0,1-.918,1.536L11.9,11.388A.342.342,0,0,1,12,11.64ZM1.062,6.828A4.386,4.386,0,0,0,5.118,9.516a4.388,4.388,0,0,0,3.105-1.29,4.429,4.429,0,0,0,.945-1.4,4.375,4.375,0,0,0,0-3.42,4.4,4.4,0,0,0-8.106,3.42Z"/></g></g></svg>