<svg xmlns="http://www.w3.org/2000/svg" viewBox="0 0 9.75 9.75"><title>Varlık 8</title><g id="08c582a2-7d42-4518-a4a7-4dc7ccc41e8f" data-name="katman 2"><g id="da7baab8-6835-482c-947a-781189ae6c6a" data-name="katman 1"><path d="M1.389,5.142a.369.369,0,0,1-.267.108H.372a.359.359,0,0,1-.264-.108A.359.359,0,0,1,0,4.878a.369.369,0,0,1,.108-.267A.354.354,0,0,1,.372,4.5h.75a.379.379,0,0,1,.378.378A.354.354,0,0,1,1.389,5.142Zm.033-3.18A.376.376,0,0,1,1.314,1.7a.379.379,0,0,1,.375-.375.372.372,0,0,1,.267.108l.528.534a.359.359,0,0,1,.108.264.369.369,0,0,1-.108.267A.354.354,0,0,1,2.22,2.6a.35.35,0,0,1-.264-.114Zm.8,5.193a.38.38,0,0,1,.267.111A.354.354,0,0,1,2.6,7.53a.35.35,0,0,1-.114.264l-.528.534a.376.376,0,0,1-.267.108.379.379,0,0,1-.375-.375.376.376,0,0,1,.108-.267l.534-.528A.34.34,0,0,1,2.22,7.155ZM6.2,2.61a2.622,2.622,0,1,1-1.326-.36A2.594,2.594,0,0,1,6.2,2.61ZM4.608,1.392A.359.359,0,0,1,4.5,1.128V.378A.369.369,0,0,1,4.608.111.354.354,0,0,1,4.872,0a.364.364,0,0,1,.267.111A.364.364,0,0,1,5.25.378v.75a.354.354,0,0,1-.111.264.369.369,0,0,1-.267.108A.359.359,0,0,1,4.608,1.392Zm.531,6.969a.364.364,0,0,1,.111.267v.75a.354.354,0,0,1-.111.264.369.369,0,0,1-.267.108A.369.369,0,0,1,4.5,9.378v-.75a.369.369,0,0,1,.108-.267.354.354,0,0,1,.264-.111A.364.364,0,0,1,5.139,8.361ZM7.524,2.6a.379.379,0,0,1-.378-.378.35.35,0,0,1,.114-.264l.528-.534a.355.355,0,0,1,.264-.108.373.373,0,0,1,.264.642l-.528.528A.35.35,0,0,1,7.524,2.6Zm.8,5.19a.359.359,0,0,1,.108.264.373.373,0,0,1-.642.264L7.26,7.794a.35.35,0,0,1-.114-.264.364.364,0,0,1,.111-.267.36.36,0,0,1,.267-.111.35.35,0,0,1,.264.114ZM9.639,4.611a.364.364,0,0,1,.111.267.354.354,0,0,1-.111.264.369.369,0,0,1-.267.108h-.75a.369.369,0,0,1-.372-.372.369.369,0,0,1,.108-.267A.354.354,0,0,1,8.622,4.5h.75A.364.364,0,0,1,9.639,4.611Z"/></g></g></svg>