<svg xmlns="http://www.w3.org/2000/svg" viewBox="0 0 12 9.75"><title>Varlık 7</title><g id="29628a81-f36b-47b1-86fe-fa45028f37ba" data-name="katman 2"><g id="b6d2665c-0a83-4e75-a5b7-12b1b949c196" data-name="katman 1"><path d="M10.764,2.436q.012.18.012.318A7.017,7.017,0,0,1,10.32,5.22,7.178,7.178,0,0,1,8.97,7.47,6.6,6.6,0,0,1,6.78,9.114a7.068,7.068,0,0,1-3.006.636,6.956,6.956,0,0,1-2-.288A6.623,6.623,0,0,1,0,8.646a4.376,4.376,0,0,0,.588.036,5,5,0,0,0,1.644-.276,4.817,4.817,0,0,0,1.4-.774,2.454,2.454,0,0,1-1-.235,2.534,2.534,0,0,1-1.3-1.475,2.227,2.227,0,0,0,.468.042,2.33,2.33,0,0,0,.642-.084,2.468,2.468,0,0,1-1.7-1.308A2.426,2.426,0,0,1,.48,3.462V3.438a2.4,2.4,0,0,0,1.11.3A2.487,2.487,0,0,1,.8,2.874,2.438,2.438,0,0,1,.5,1.692,2.466,2.466,0,0,1,.834.45,7.009,7.009,0,0,0,3.06,2.262,6.848,6.848,0,0,0,5.9,3.024a2.675,2.675,0,0,1-.054-.558,2.4,2.4,0,0,1,.336-1.242A2.392,2.392,0,0,1,7.068.342,2.37,2.37,0,0,1,8.31,0,2.467,2.467,0,0,1,10.1.78a4.872,4.872,0,0,0,1.56-.594,2.406,2.406,0,0,1-.417.78,2.531,2.531,0,0,1-.663.582A5.085,5.085,0,0,0,12,1.158,4.888,4.888,0,0,1,10.764,2.436Z"/></g></g></svg>