<svg xmlns="http://www.w3.org/2000/svg" viewBox="0 0 12 11.844"><title>Varlık 6</title><g id="328f1ae3-9dcc-4793-a3a4-052d287219b0" data-name="katman 2"><g id="6895f383-0c31-4c8c-9da5-7a3f6c6838eb" data-name="katman 1"><path d="M11.31,3.414a1.384,1.384,0,0,1,.5.5,1.354,1.354,0,0,1,.186.7v5.844a1.354,1.354,0,0,1-.186.7,1.384,1.384,0,0,1-.5.5,1.354,1.354,0,0,1-.7.186H1.386a1.354,1.354,0,0,1-.7-.186,1.384,1.384,0,0,1-.5-.5,1.354,1.354,0,0,1-.186-.7V4.614a1.354,1.354,0,0,1,.186-.7,1.384,1.384,0,0,1,.5-.5,1.354,1.354,0,0,1,.7-.186h9.228A1.354,1.354,0,0,1,11.31,3.414Zm.072,1.2a.762.762,0,0,0-.1-.387A.747.747,0,0,0,11,3.948a.762.762,0,0,0-.387-.1H1.386a.762.762,0,0,0-.387.1.747.747,0,0,0-.279.279.762.762,0,0,0-.1.387v5.844a.762.762,0,0,0,.1.387A.77.77,0,0,0,1,11.127a.744.744,0,0,0,.387.1h9.228a.744.744,0,0,0,.387-.1.77.77,0,0,0,.279-.282.762.762,0,0,0,.1-.387ZM1.368,2.214a.307.307,0,0,1,.216-.523h8.844a.3.3,0,0,1,.222.091.3.3,0,0,1,0,.432.306.306,0,0,1-.222.09H1.584A.3.3,0,0,1,1.368,2.214ZM2.676.521a.291.291,0,0,1-.09-.215A.293.293,0,0,1,2.676.09.3.3,0,0,1,2.892,0H9.108a.3.3,0,0,1,.216.09.293.293,0,0,1,.09.216.291.291,0,0,1-.09.215.292.292,0,0,1-.216.091H2.892A.292.292,0,0,1,2.676.521Zm5.118,6.96a.3.3,0,0,1-.132.4L4.722,9.6a.248.248,0,0,1-.15.047L4.428,9.6a.276.276,0,0,1-.093-.114.3.3,0,0,1-.027-.15V5.892a.3.3,0,0,1,.027-.15.268.268,0,0,1,.1-.114.254.254,0,0,1,.144-.042.268.268,0,0,1,.147.042L7.662,7.35A.353.353,0,0,1,7.794,7.481Zm-.858.133L4.92,6.432V8.8Z"/></g></g></svg>