<svg xmlns="http://www.w3.org/2000/svg" viewBox="0 0 12 8.253"><title>Varlık 13</title><g id="f5556d52-2c11-4b35-88c4-5dddd56373ae" data-name="katman 2"><g id="09168a83-59c1-46a3-ada2-40e2bb123c34" data-name="katman 1"><path d="M11.874,2.019A14.213,14.213,0,0,1,12,4.125v.006a14.167,14.167,0,0,1-.126,2.1A3.5,3.5,0,0,1,11.49,7.45a1.477,1.477,0,0,1-.345.434A1.2,1.2,0,0,1,10.7,8.1a4.027,4.027,0,0,1-.612.084c-.348.017-.924.032-1.728.049Q7.224,8.253,6,8.253T3.636,8.236c-.8-.017-1.38-.034-1.728-.055A3.673,3.673,0,0,1,1.3,8.1a1.2,1.2,0,0,1-.441-.219A1.477,1.477,0,0,1,.51,7.45,3.557,3.557,0,0,1,.126,6.232,14.242,14.242,0,0,1,0,4.131V4.125A14.3,14.3,0,0,1,.126,2.019,3.618,3.618,0,0,1,.51.8,1.464,1.464,0,0,1,.855.361,1.134,1.134,0,0,1,1.3.148,3.57,3.57,0,0,1,1.908.07C2.244.045,2.82.028,3.636.015Q4.71,0,6,0T8.364.015c.816.013,1.392.03,1.728.055A3.57,3.57,0,0,1,10.7.148a1.111,1.111,0,0,1,.441.216A1.543,1.543,0,0,1,11.49.8,3.618,3.618,0,0,1,11.874,2.019ZM8.25,4.125,4.5,1.875v4.5Z"/></g></g></svg>